<?xml version="1.0" encoding="UTF-8"?>
<svg version="1.1" xmlns="http://www.w3.org/2000/svg" width="1254" height="1254">
<path d="M0 0 C413.82 0 827.64 0 1254 0 C1254 413.82 1254 827.64 1254 1254 C840.18 1254 426.36 1254 0 1254 C0 840.18 0 426.36 0 0 Z " fill="#010B24" transform="translate(0,0)"/>
<path d="M0 0 C3.00761541 -0.29735807 5.8096069 -0.39624163 8.82003212 -0.36914349 C10.21386938 -0.37433579 10.21386938 -0.37433579 11.63586497 -0.37963298 C14.78495823 -0.38764531 17.93360171 -0.37405591 21.08267212 -0.36076355 C23.34891473 -0.36207038 25.61515691 -0.36469454 27.88139665 -0.36853105 C34.13639936 -0.375272 40.39124937 -0.36319391 46.6462326 -0.34819686 C52.69031291 -0.33661613 58.73437622 -0.33907493 64.77846311 -0.34124239 C77.14700331 -0.34518924 89.51549553 -0.33514039 101.88402176 -0.31719017 C114.13524233 -0.29945566 126.38644293 -0.28789569 138.63767624 -0.28463173 C139.77912659 -0.2843224 139.77912659 -0.2843224 140.94363655 -0.28400682 C144.80800327 -0.28299186 148.67237001 -0.2820877 152.53673677 -0.2812262 C179.92749959 -0.27492038 207.31823628 -0.25469555 234.70898438 -0.22631836 C261.32324077 -0.19877739 287.93749003 -0.17752052 314.55175781 -0.16479492 C315.78171828 -0.16420305 315.78171828 -0.16420305 317.03652643 -0.16359923 C325.27083369 -0.15964376 333.50514101 -0.15581631 341.73944838 -0.15208265 C358.51456224 -0.14447345 375.28967564 -0.1360097 392.06478882 -0.12702942 C392.83612766 -0.12661755 393.6074665 -0.12620568 394.40217924 -0.12578133 C445.93479721 -0.09816661 497.46740003 -0.05056726 549 0 C547.24498122 3.67150322 545.00605522 6.74936859 542.5 9.9375 C541.59365985 11.10279447 540.68741242 12.26816106 539.78125 13.43359375 C539.08708984 14.32280518 539.08708984 14.32280518 538.37890625 15.22998047 C536.23931126 17.97645067 534.12015093 20.73851181 532 23.5 C531.16677695 24.58341816 530.33344329 25.66675126 529.5 26.75 C529.0875 27.28625 528.675 27.8225 528.25 28.375 C527 30 525.75 31.625 524.5 33.25 C524.08733887 33.78665283 523.67467773 34.32330566 523.24951172 34.8762207 C522.41856126 35.95606664 521.58685887 37.03533438 520.75439453 38.11401367 C518.62796838 40.8713712 516.51678239 43.63850479 514.4296875 46.42578125 C510.20887058 52.03719297 505.92786546 57.33285344 500.83984375 62.19921875 C499.06757464 63.93386007 497.47398232 65.73094363 495.875 67.625 C492.44719259 71.62147592 488.73966919 75.29932632 485 79 C480.76820491 83.18785122 476.68188787 87.39654886 472.8359375 91.9453125 C469.87964202 95.25384744 466.70120386 98.34159372 463.52490234 101.43798828 C460.80750704 104.10820344 458.23963744 106.84695961 455.75976562 109.74023438 C452.25839335 113.75905309 448.5742003 117.53906624 444.78125 121.28125 C443.78889343 122.26792664 443.78889343 122.26792664 442.77648926 123.27453613 C439.98421856 126.05066558 437.18594584 128.82071537 434.38818359 131.59130859 C432.32959102 133.6316708 430.27412097 135.67514331 428.21875 137.71875 C427.59875122 138.33045044 426.97875244 138.94215088 426.33996582 139.5723877 C422.63206145 143.25979398 419.15657097 147.08051071 415.73840332 151.03674316 C412.95665871 154.17829211 409.98669448 157.11724269 407 160.0625 C406.360625 160.69808838 405.72125 161.33367676 405.0625 161.98852539 C402.36581517 164.66908015 399.6631227 167.34354664 396.9609375 170.01855469 C394.97183897 171.98941341 392.98587103 173.96339005 391 175.9375 C390.401875 176.52732666 389.80375 177.11715332 389.1875 177.72485352 C386.27842326 180.61729073 383.48201857 183.55748444 380.80831718 186.66966248 C376.87837316 191.18103707 372.77449329 195.50722314 368.62942505 199.82055664 C367.81272146 200.67268738 366.99601787 201.52481812 366.15456569 202.402771 C363.90654676 204.74645386 361.65665814 207.08831898 359.40543509 209.42892385 C357.96300254 210.92882609 356.52121067 212.42934197 355.07952309 213.92996025 C336.76514143 232.98848329 318.31492997 251.91347744 299.80444933 270.78146923 C296.77660614 273.86791238 293.74979731 276.95536799 290.72363281 280.04345703 C289.82026451 280.9652569 289.82026451 280.9652569 288.89864634 281.90567899 C279.18312684 291.82463884 269.55942517 301.82813699 259.96781899 311.86680353 C250.07634986 322.21529741 240.0909594 332.46610479 230.01546562 342.63554096 C224.37662054 348.33223593 218.78684208 354.06316182 213.30237198 359.90896606 C176.04588207 399.54616443 176.04588207 399.54616443 152.99082696 401.0954895 C133.38484564 401.60694765 112.10643031 399.48733074 97.25 385.6875 C86.83219274 374.73792532 86.36215711 362.26871401 86.625 347.92578125 C87.24414077 333.85580732 94.4309575 324.23935566 104.26953125 314.7265625 C106.00925735 312.99076355 107.59641832 311.18481404 109.1875 309.3125 C112.29615326 305.69860287 115.61114646 302.34713174 119 299 C122.8989733 295.1487936 126.60824316 291.23578249 130.16015625 287.05859375 C132.95697942 283.92923959 135.96475348 281.01458371 138.95117188 278.06835938 C142.20017042 274.84617513 145.22451392 271.50650526 148.19140625 268.02734375 C151.17161659 264.686676 154.39830594 261.59441183 157.58203125 258.44921875 C160.30649918 255.6895396 162.83547376 252.80819343 165.35546875 249.86328125 C167.00398752 247.99548207 168.72303581 246.24544376 170.5 244.5 C172.87224102 242.16974555 175.09113517 239.77895594 177.25 237.25 C180.18279641 233.84161498 183.30073288 230.65601186 186.5 227.5 C189.59492981 224.4466338 192.61934357 221.37676221 195.4375 218.0625 C198.896438 214.00345709 202.65835029 210.28271102 206.47436523 206.56274414 C209.21667727 203.86802103 211.80604202 201.10400064 214.3125 198.1875 C219.02614198 192.73832267 224.19379415 187.75912186 229.328125 182.7109375 C230.08609375 181.96070313 230.8440625 181.21046875 231.625 180.4375 C232.29789063 179.77621094 232.97078125 179.11492187 233.6640625 178.43359375 C235.60507788 176.41143224 237.43848794 174.35392778 239.26757812 172.23242188 C243.02557972 167.90843501 247.02052686 163.86919747 251.09375 159.84375 C251.84410522 159.0971814 252.59446045 158.35061279 253.36755371 157.5814209 C256.54216504 154.42298888 259.72275916 151.27060721 262.90283203 148.11767578 C265.23940361 145.79930255 267.57287999 143.4778448 269.90625 141.15625 C270.6137439 140.45705444 271.32123779 139.75785889 272.0501709 139.03747559 C276.04702522 135.06010536 279.85477101 130.98049869 283.52746582 126.70129395 C290.47146107 118.67854158 298.97170621 111.88139467 307 105 C182.26 104.67 57.52 104.34 -71 104 C-66.80279174 95.60558348 -60.98767999 88.05825546 -55.625 80.375 C-54.58388062 78.88045288 -54.58388062 78.88045288 -53.52172852 77.35571289 C-50.66279223 73.25177155 -47.80183045 69.14924596 -44.93994141 65.04736328 C-37.07492518 53.77322002 -29.25726208 42.47067855 -21.53222656 31.10009766 C-15.53213233 22.28216482 -9.41675952 13.54647155 -3.27416992 4.82739258 C-2.1621012 3.23248275 -1.07852238 1.61778357 0 0 Z " fill="#009FFC" transform="translate(388,288)"/>
<path d="M0 0 C1.45702971 0.00502424 2.9140611 0.00958551 4.37109375 0.01367188 C7.9140977 0.02460612 11.45703797 0.04182 15 0.0625 C11.76167484 4.51972611 8.5610234 8.74739511 4.5625 12.5625 C1.76733332 15.28778751 -0.90387257 18.03015841 -3.4375 21 C-6.9446944 25.09308303 -10.75725158 28.83474704 -14.58984375 32.62109375 C-17.26854532 35.33452727 -19.74608118 38.17027023 -22.22265625 41.06640625 C-24.23268777 43.32382626 -26.34832953 45.43985713 -28.5 47.5625 C-31.24500542 50.27053565 -33.8727091 53.00419249 -36.375 55.9375 C-39.70246527 59.82212224 -43.30585985 63.39804047 -46.94384766 66.98681641 C-50.2603251 70.27583767 -53.35983914 73.68402585 -56.390625 77.234375 C-58.02586434 79.09187988 -59.73481793 80.82856009 -61.5 82.5625 C-64.59914347 85.61311102 -67.48080486 88.802132 -70.3125 92.1015625 C-71.37867429 93.34049651 -72.46025649 94.56648085 -73.5625 95.7734375 C-86.56839621 110.20185361 -91.88164542 129.0557735 -91.37890625 148.19140625 C-90.27694767 167.75413329 -81.85765675 184.28321554 -67.5 197.375 C-55.81509202 206.81896672 -42.72440691 208.52316636 -28.04751587 208.44104004 C-26.68992352 208.44433961 -25.33233386 208.44895947 -23.97474992 208.4547677 C-20.28188524 208.46687059 -16.58925295 208.46066529 -12.89638901 208.45126271 C-8.89900349 208.44442097 -4.9016586 208.45502207 -0.90428162 208.46354675 C6.01232036 208.47607327 12.92885983 208.47809977 19.84547043 208.47319031 C29.86186294 208.46635948 39.87816188 208.47894007 49.89453764 208.49669749 C66.16992203 208.52530554 82.44529627 208.54284868 98.72070312 208.55126953 C99.69332921 208.55177671 100.66595529 208.55228389 101.66805489 208.55280644 C108.5703698 208.55633298 115.47268486 208.55946242 122.375 208.5625 C130.25618504 208.56596883 138.13736995 208.56961824 146.01855469 208.57373047 C147.47479233 208.57448439 147.47479233 208.57448439 148.96044891 208.57525355 C165.17550023 208.58401193 181.39051677 208.6044762 197.60554469 208.63321257 C207.59080791 208.65034387 217.57597246 208.65699929 227.56124844 208.64990652 C234.40786186 208.64571241 241.25441323 208.65212442 248.10101222 208.66670525 C252.04418146 208.67472472 255.98719658 208.67793978 259.93036461 208.66788292 C263.55016093 208.65872837 267.16967256 208.66365573 270.789445 208.67909735 C272.69744282 208.68372678 274.60545951 208.67378435 276.51343286 208.66306925 C285.36800746 208.72073912 293.40140555 210.08631579 302 212.0625 C303.76605955 212.45054125 303.76605955 212.45054125 305.56779706 212.84642172 C322.24518903 216.67445228 336.59965574 226.64454475 349 238.0625 C350.20448878 239.00493433 351.41215058 239.94334986 352.625 240.875 C368.08864912 254.35319293 377.77154075 274.60882608 383 294.0625 C383.20882812 294.81128418 383.41765625 295.56006836 383.6328125 296.33154297 C389.15994375 316.83527589 390.08713573 341.65814595 382.76953125 361.80859375 C381.93793618 364.24428085 381.35067268 366.68531137 380.75 369.1875 C375.59895354 388.20674846 364.04909634 405.59722266 351 420.0625 C349.8330761 421.47895479 348.66637392 422.8955923 347.5 424.3125 C340.57035065 432.16830774 331.68922708 438.30395898 323 444.0625 C322.02546875 444.7225 321.0509375 445.3825 320.046875 446.0625 C312.29831038 451.10097551 304.57852869 454.46446131 295.85888672 457.421875 C294.18707264 457.99802947 292.53163121 458.62117849 290.87890625 459.25 C277.79193836 464.07992573 263.93909792 464.36365504 250.13867188 464.28955078 C248.62894193 464.28898464 247.11921144 464.28930717 245.60948181 464.29043579 C241.56711975 464.2910024 237.52487987 464.27936212 233.48254585 464.26528788 C229.23719043 464.25266329 224.99183126 464.25160088 220.74645996 464.24923706 C212.73233282 464.24305637 204.71826117 464.22669245 196.70415831 464.20653808 C187.56974882 464.18407198 178.43533648 464.17315889 169.30090618 464.16314721 C150.53390616 464.14232263 131.76695756 464.10721406 113 464.0625 C114.48268577 460.95585333 115.97298018 458.86159693 118.44921875 456.453125 C119.13306641 455.78023437 119.81691406 455.10734375 120.52148438 454.4140625 C121.23626953 453.72054688 121.95105469 453.02703125 122.6875 452.3125 C127.47057275 447.64911489 132.06445277 442.93215819 136.42114258 437.86621094 C138.50658179 435.48377319 140.7321138 433.27070499 143 431.0625 C145.93118191 428.16658042 148.76403174 425.26007429 151.4375 422.125 C154.30172413 418.77324836 157.36335221 415.65694601 160.5 412.5625 C163.5531698 409.55018895 166.54072412 406.52701098 169.3125 403.25 C173.23239419 398.64673443 177.56764284 394.4693407 181.86181641 390.22021484 C185.6267265 386.47962718 189.25122556 382.6791155 192.66796875 378.61328125 C193.10753906 378.10152344 193.54710937 377.58976562 194 377.0625 C194.37169815 376.54279633 194.7433963 376.02309265 195.12635803 375.48764038 C197.96793616 373.3262628 200.88395462 373.66398034 204.31030273 373.70947266 C205.42321434 373.70623238 205.42321434 373.70623238 206.55860901 373.70292664 C208.17096951 373.69983806 209.78335348 373.70345029 211.39568901 373.71294022 C213.95765911 373.72669167 216.51885541 373.72023072 219.08082581 373.70809937 C226.36537676 373.67717413 233.64975057 373.68187431 240.93432617 373.70214844 C245.3924668 373.71314511 249.85003117 373.69970019 254.30809212 373.67225266 C255.99794221 373.66685268 257.6878514 373.67077104 259.37765312 373.68465042 C272.72535835 373.79289713 283.43825893 371.89142921 294.03515625 363 C297.38134517 359.70037832 299.79627746 356.2020153 302 352.0625 C302.41378906 351.28648437 302.82757812 350.51046875 303.25390625 349.7109375 C307.42397056 340.32466034 308.27256874 327.74083178 304.70703125 318.0078125 C299.7515106 306.66133794 292.24703985 299.79616441 281 295.0625 C280.24574747 294.71705409 279.49149495 294.37160817 278.71438628 294.0156942 C275.69453143 292.9552305 273.37088579 292.80906602 270.1752882 292.80358028 C269.00332903 292.79673149 267.83136986 292.7898827 266.62389678 292.78282636 C265.34045026 292.78544322 264.05700375 292.78806007 262.73466492 292.79075623 C261.35424016 292.78646888 259.97381788 292.78130551 258.59339935 292.77534157 C254.80059427 292.76147415 251.00786939 292.75998526 247.21504271 292.76048481 C243.1242601 292.75884806 239.03351275 292.74572235 234.94274902 292.73394775 C227.85357992 292.71507537 220.76442805 292.70336932 213.67523766 292.69640923 C203.41673382 292.6862407 193.15828207 292.66417778 182.89980529 292.63902331 C166.24481928 292.59841615 149.58982829 292.56596005 132.93481445 292.53930664 C131.9378845 292.53770934 130.94095454 292.53611204 129.91381458 292.53446633 C128.91564898 292.53286743 127.91748338 292.53126853 126.88907033 292.52962118 C112.74480892 292.5069446 98.60055271 292.48231072 84.45629883 292.45532227 C82.96408881 292.45247805 82.96408881 292.45247805 81.44173314 292.44957637 C64.85294669 292.41779468 48.26417012 292.38204189 31.67539626 292.34428078 C21.44346475 292.32124797 11.21153997 292.30229133 0.97959159 292.28861404 C-6.03242457 292.27908218 -13.04442939 292.26624081 -20.05643503 292.25080519 C-24.10191987 292.24204457 -28.1473907 292.23494011 -32.19288445 292.23216438 C-35.89828422 292.22960708 -39.60364707 292.22252222 -43.30903222 292.21189214 C-45.28023895 292.20742658 -47.25145487 292.20783407 -49.22266656 292.20843023 C-57.89922702 292.17723999 -65.66588393 291.65837222 -74 289.0625 C-74.91265625 288.81886719 -75.8253125 288.57523438 -76.765625 288.32421875 C-104.99472113 280.4325872 -126.30758102 261.18888594 -140.59423828 235.9375 C-158.6281494 202.7800935 -162.79718076 161.47467203 -154 125.0625 C-153.73509766 123.93908203 -153.73509766 123.93908203 -153.46484375 122.79296875 C-143.29732332 80.99316252 -113.99001304 43.54746394 -77.62109375 21.1875 C-53.56010056 6.84938018 -27.94488817 -0.16803711 0 0 Z " fill="#E9ECF4" transform="translate(543,497.9375)"/>
<path d="M0 0 C0.40089844 0.969375 0.80179688 1.93875 1.21484375 2.9375 C14.78346087 35.17413073 34.73139166 59.92632429 66 76 C66.99 76.33 67.98 76.66 69 77 C67.6124182 80.13879381 66.00476592 82.22254795 63.55078125 84.609375 C62.86693359 85.28226563 62.18308594 85.95515625 61.47851562 86.6484375 C60.76373047 87.34195313 60.04894531 88.03546875 59.3125 88.75 C57.91021981 90.11719069 56.5104657 91.4869772 55.11328125 92.859375 C54.49235596 93.46233398 53.87143066 94.06529297 53.23168945 94.68652344 C51.32151195 96.66670526 49.52429925 98.68770378 47.72802734 100.76977539 C44.0732731 104.97490687 40.20077026 108.91057727 36.23828125 112.82421875 C35.52520309 113.53351028 34.81212494 114.24280182 34.07743835 114.97358704 C31.824899 117.21403081 29.56912519 119.45117211 27.3125 121.6875 C24.32651003 124.64682084 21.34390129 127.60949051 18.36328125 130.57421875 C17.68405106 131.2451506 17.00482086 131.91608246 16.30500793 132.60734558 C15.66721909 133.24183121 15.02943024 133.87631683 14.37231445 134.5300293 C13.81606888 135.08103806 13.2598233 135.63204681 12.6867218 136.19975281 C10.66639758 138.35605564 8.84590271 140.69262161 7 143 C164.41 143.495 164.41 143.495 325 144 C323.03881522 147.92236957 320.78035793 150.6206783 317.8125 153.75 C317.28785156 154.31074219 316.76320313 154.87148438 316.22265625 155.44921875 C314.48602412 157.30351988 312.74303238 159.15171546 311 161 C309.76384102 162.31725627 308.52817195 163.63497244 307.29296875 164.953125 C305.38669717 166.98731938 303.48009816 169.02119453 301.57177734 171.0534668 C297.67419429 175.20541319 293.79501946 179.37331808 289.9375 183.5625 C285.70308955 188.16048888 281.45287833 192.74321495 277.1875 197.3125 C276.60983887 197.93141113 276.03217773 198.55032227 275.43701172 199.18798828 C272.30554993 202.54023063 269.167765 205.88638394 266.0234375 209.2265625 C265.36190674 209.92998779 264.70037598 210.63341309 264.01879883 211.3581543 C262.75944895 212.6967145 261.49895915 214.03420361 260.23706055 215.37036133 C256.73522703 219.09314906 253.31705012 222.87499589 249.96655273 226.73461914 C249.31759033 227.48219482 248.66862793 228.22977051 248 229 C247.60888596 229.63934432 247.21777191 230.27868863 246.81480592 230.93740702 C244.26394934 234.63007321 242.30895576 236.69270737 237.8542701 237.73849678 C233.78070985 238.01173168 229.77314388 238.02895927 225.69398499 237.96203613 C224.11638341 237.96552635 222.53878637 237.97253398 220.96121401 237.98274946 C216.63243386 238.00062321 212.30523964 237.96866307 207.97666156 237.92852497 C203.30666702 237.89396391 198.63676127 237.90566914 193.9666748 237.91174316 C185.87764878 237.91593721 177.78913913 237.89084632 169.700243 237.84584045 C158.00516228 237.78081248 146.31033115 237.75998777 134.61508923 237.74993652 C115.64030532 237.73242923 96.6657966 237.67919457 77.69116211 237.60351562 C59.25953549 237.53007888 40.82798362 237.47345375 22.39624023 237.43945312 C21.26003398 237.43735134 20.12382773 237.43524955 18.95319099 237.43308407 C13.25315475 237.42264374 7.55311799 237.41253408 1.85308087 237.40258884 C-45.43146961 237.31966049 -92.71572138 237.17876005 -140 237 C-140.2792866 226.27295621 -140.49187708 215.54679079 -140.62174606 204.81683826 C-140.6841121 199.83303832 -140.76854267 194.85174312 -140.90527344 189.86938477 C-141.03664566 185.05157474 -141.10760763 180.23615688 -141.13852692 175.41669273 C-141.16052869 173.58772835 -141.20349626 171.75888025 -141.26876068 169.93094826 C-141.5664515 161.23942566 -141.78381183 154.11674449 -135.84440994 147.28854656 C-133.80345856 145.20247376 -131.67549274 143.25452563 -129.46903229 141.34557152 C-127.21079868 139.27712493 -125.37619976 136.91197623 -123.5 134.5 C-119.68005989 129.73891522 -115.61061181 125.28726975 -111.44140625 120.8359375 C-108.32431446 117.48883131 -105.36418887 114.06985859 -102.5 110.5 C-98.16471067 105.1005942 -93.50548539 100.05949634 -88.78515625 95 C-86.02403653 92.03855832 -83.34945349 89.01014362 -80.69921875 85.94921875 C-77.18593276 81.91903551 -73.58221867 77.96883249 -70 74 C-68.5206877 72.35429756 -67.04152054 70.70846465 -65.5625 69.0625 C-61.58001348 64.63519824 -57.57183171 60.23180237 -53.5546875 55.8359375 C-51.56858871 53.63118563 -49.61301474 51.40850633 -47.66796875 49.16796875 C-44.02437009 44.99403498 -40.24949395 40.95738653 -36.4375 36.9375 C-35.02448973 35.44164222 -33.61173415 33.94554383 -32.19921875 32.44921875 C-31.49587402 31.70462402 -30.7925293 30.9600293 -30.06787109 30.19287109 C-26.95158155 26.88820608 -23.84924165 23.57064712 -20.75 20.25 C-19.90151489 19.34290283 -19.90151489 19.34290283 -19.03588867 18.41748047 C-16.17803355 15.35717161 -13.34055397 12.28075971 -10.53125 9.17578125 C-9.97856445 8.56766602 -9.42587891 7.95955078 -8.85644531 7.33300781 C-7.80942318 6.17905576 -6.76686689 5.02103097 -5.72949219 3.85839844 C-2.22296796 0 -2.22296796 0 0 0 Z " fill="#006AFA" transform="translate(374,725)"/>
<path d="M0 0 C1.22251953 0.03789343 2.44503905 0.07578687 3.70460463 0.11482859 C35.81860916 1.12975446 67.85512152 2.98042457 99.875 5.625 C98.93423635 6.88935136 97.99206462 8.15265507 97.04931641 9.41552734 C96.52479889 10.11914398 96.00028137 10.82276062 95.45986938 11.54769897 C93.1696975 14.54944564 90.72773636 17.40276559 88.25 20.25 C87.19919443 21.46742693 86.14841392 22.68487548 85.09765625 23.90234375 C84.29932373 24.82442627 84.29932373 24.82442627 83.48486328 25.76513672 C80.87926662 28.77536349 78.28159862 31.79236177 75.6875 34.8125 C75.18452393 35.39797607 74.68154785 35.98345215 74.16333008 36.58666992 C71.2055482 40.04023976 68.30112159 43.53000329 65.4375 47.0625 C61.29503621 52.16727843 56.99380901 57.12122682 52.67431641 62.07568359 C48.75357684 66.5832161 44.94658012 71.16893044 41.1875 75.8125 C37.98527853 79.70709368 34.69377575 83.52279287 31.38647461 87.32836914 C30.91733643 87.87098389 30.44819824 88.41359863 29.96484375 88.97265625 C29.24397961 89.76792693 29.24397961 89.76792693 28.50855255 90.57926369 C26.78188001 92.60405555 26.78188001 92.60405555 25.58454132 95.12926292 C23.37970782 98.90495819 21.23456622 101.96075217 16.84468842 103.19655848 C10.34642451 104.14500845 3.76769154 103.87596531 -2.77929688 103.76025391 C-5.00704826 103.75743173 -7.23480895 103.75901931 -9.46255493 103.76467896 C-15.49989653 103.76754558 -21.53524714 103.70879946 -27.57212639 103.63893938 C-33.88477326 103.5763809 -40.19746696 103.57054855 -46.51037598 103.5586853 C-57.10263834 103.53114597 -67.694249 103.4687062 -78.28613281 103.37939453 C-89.19299692 103.28752288 -100.09966272 103.21677928 -111.00683594 103.17431641 C-112.01627476 103.17037555 -112.01627476 103.17037555 -113.04610628 103.16635509 C-116.42234006 103.15330417 -119.79857525 103.14066722 -123.17481136 103.12823606 C-151.15871463 103.02466541 -179.1418119 102.84787363 -207.125 102.625 C-206.72341303 102.1690931 -206.32182606 101.7131862 -205.90806979 101.24346393 C-203.14811864 98.07437443 -200.53390059 95.00648231 -198.40657043 91.36647034 C-197.94648024 90.5995455 -197.48639004 89.83262066 -197.01235771 89.04245567 C-196.52335047 88.22608446 -196.03434322 87.40971325 -195.53051758 86.56860352 C-187.57817296 73.73213174 -178.5930216 61.77590792 -168.9375 50.1875 C-168.49828626 49.65740106 -168.05907251 49.12730211 -167.60654926 48.58113956 C-123.2246639 -4.69612945 -64.90645976 -2.06084518 0 0 Z " fill="#F6F7F9" transform="translate(890.125,492.375)"/>
<path d="M0 0 C181.17 0 362.34 0 549 0 C548.67 0.99 548.34 1.98 548 3 C367.16 2.67 186.32 2.34 0 2 C0 1.34 0 0.68 0 0 Z " fill="#03A0DD" transform="translate(388,288)"/>
<path d="M0 0 C0.99 0.33 1.98 0.66 3 1 C1.32340113 3.0701729 0.45182678 3.92660822 -2.22099304 4.36076355 C-3.08481094 4.35410172 -3.94862885 4.34743988 -4.83862305 4.34057617 C-5.8194133 4.34034958 -6.80020355 4.34012299 -7.81071472 4.33988953 C-8.86704605 4.32440567 -9.92337738 4.30892181 -11.01171875 4.29296875 C-12.09508011 4.28872391 -13.17844147 4.28447906 -14.29463196 4.28010559 C-17.75917277 4.26329569 -21.22313462 4.22563848 -24.6875 4.1875 C-27.03449682 4.17245619 -29.38150274 4.15876726 -31.72851562 4.14648438 C-37.48587505 4.11338461 -43.24289617 4.06316205 -49 4 C-48.67 3.34 -48.34 2.68 -48 2 C-47.41340103 1.98969254 -46.82680206 1.97938507 -46.22242737 1.96876526 C-40.1396213 1.86092806 -34.05697026 1.74631244 -27.97436523 1.62768555 C-25.70161164 1.58426335 -23.42882387 1.54259384 -21.15600586 1.50268555 C-17.89686768 1.44515881 -14.63790269 1.38141448 -11.37890625 1.31640625 C-10.35599991 1.29969376 -9.33309357 1.28298126 -8.27919006 1.26576233 C-7.33829025 1.24581711 -6.39739044 1.22587189 -5.42797852 1.20532227 C-4.59524918 1.18977798 -3.76251984 1.1742337 -2.90455627 1.15821838 C-0.99033415 1.20571386 -0.99033415 1.20571386 0 0 Z " fill="#0080EB" transform="translate(558,682)"/>
<path d="M0 0 C0.66 0 1.32 0 2 0 C2.495 2.475 2.495 2.475 3 5 C1.329375 5.12375 1.329375 5.12375 -0.375 5.25 C-1.57125 5.4975 -2.7675 5.745 -4 6 C-5.07212634 7.83605894 -5.07212634 7.83605894 -6 10 C-7.08574831 11.34515124 -8.21368966 12.65701589 -9.375 13.9375 C-11.36071495 16.1529671 -13.27854544 18.35227805 -15.125 20.6875 C-19.20602116 25.72075943 -24.05388596 29.85210609 -29 34 C-29.66 33.67 -30.32 33.34 -31 33 C-30.43152344 32.443125 -29.86304688 31.88625 -29.27734375 31.3125 C-25.56102425 27.63960995 -21.90098947 23.96915477 -18.5 20 C-15.23826437 16.19338045 -11.72193188 12.70001325 -8.1484375 9.1875 C-6.17316034 7.17630871 -4.35752769 5.10904569 -2.5625 2.9375 C-1.716875 1.968125 -0.87125 0.99875 0 0 Z " fill="#0171E1" transform="translate(372,725)"/>
<path d="M0 0 C0.99 0.33 1.98 0.66 3 1 C2.57589844 1.4125 2.15179688 1.825 1.71484375 2.25 C-2.18403638 6.08889735 -5.84961982 10.05572456 -9.421875 14.19921875 C-11.19649815 16.2242219 -13.05776935 18.13545857 -15 20 C-15.66 19.67 -16.32 19.34 -17 19 C-16.27554687 18.21496094 -15.55109375 17.42992187 -14.8046875 16.62109375 C-9.77371983 11.15805576 -4.78086039 5.68534749 0 0 Z " fill="#026FE9" transform="translate(294,810)"/>
<path d="M0 0 C-1.36242426 3.06713244 -2.89699705 5.11840293 -5.3125 7.4375 C-5.93125 8.03691406 -6.55 8.63632812 -7.1875 9.25390625 C-7.785625 9.83011719 -8.38375 10.40632812 -9 11 C-9.93937324 11.95649723 -10.87713607 12.91458168 -11.8125 13.875 C-14 16 -14 16 -16 17 C-14.52284691 12.02384051 -11.62321342 9.20389699 -8 5.6875 C-7.4534375 5.13771484 -6.906875 4.58792969 -6.34375 4.02148438 C-2.26731366 0 -2.26731366 0 0 0 Z " fill="#0176E8" transform="translate(339,763)"/>
<path d="M0 0 C0.99 0.33 1.98 0.66 3 1 C1 3 1 3 -0.83499146 3.24050903 C-1.57667572 3.23606781 -2.31835999 3.23162659 -3.08251953 3.22705078 C-4.34360031 3.22682419 -4.34360031 3.22682419 -5.63015747 3.22659302 C-6.53853363 3.21627045 -7.44690979 3.20594788 -8.3828125 3.1953125 C-9.31221649 3.1924826 -10.24162048 3.18965271 -11.19918823 3.18673706 C-14.1745885 3.17552069 -17.14969035 3.1504136 -20.125 3.125 C-22.13931858 3.11497208 -24.15364186 3.1058459 -26.16796875 3.09765625 C-31.11209456 3.07557661 -36.05599665 3.04103693 -41 3 C-41 2.67 -41 2.34 -41 2 C-39.79351807 1.97494385 -38.58703613 1.9498877 -37.34399414 1.92407227 C-32.88424339 1.83017477 -28.42465487 1.72991167 -23.96508789 1.62768555 C-22.03185815 1.58426959 -20.09858841 1.54259958 -18.1652832 1.50268555 C-15.39261798 1.44514369 -12.62015543 1.3814038 -9.84765625 1.31640625 C-8.97786636 1.29969376 -8.10807648 1.28298126 -7.21192932 1.26576233 C-3.28884034 1.54973787 -3.28884034 1.54973787 0 0 Z " fill="#018BF5" transform="translate(558,682)"/>
<path d="M0 0 C0.99 0.33 1.98 0.66 3 1 C-1.95 5.95 -6.9 10.9 -12 16 C-12.66 15.34 -13.32 14.68 -14 14 C-9.38 9.38 -4.76 4.76 0 0 Z " fill="#F0F1F3" transform="translate(722,555)"/>
<path d="M0 0 C0.33 0.66 0.66 1.32 1 2 C-2.45877212 7.86487447 -7.11321868 12.30117181 -12 17 C-12.99 16.67 -13.98 16.34 -15 16 C-14.16855469 15.18015625 -13.33710938 14.3603125 -12.48046875 13.515625 C-11.38267895 12.42721802 -10.28503011 11.33866885 -9.1875 10.25 C-8.64029297 9.71117187 -8.09308594 9.17234375 -7.52929688 8.6171875 C-4.77802637 5.88259137 -2.21577882 3.20316096 0 0 Z " fill="#0188EA" transform="translate(516,577)"/>
<path d="M0 0 C0.99 0.33 1.98 0.66 3 1 C1.09236669 2.98861775 -0.82515911 4.96565718 -2.75 6.9375 C-3.55824219 7.78344727 -3.55824219 7.78344727 -4.3828125 8.64648438 C-4.91132812 9.18466797 -5.43984375 9.72285156 -5.984375 10.27734375 C-6.70705566 11.02359009 -6.70705566 11.02359009 -7.44433594 11.78491211 C-9.25704528 13.20077124 -10.75631224 13.59147949 -13 14 C-8.88380164 9.08064098 -4.59589638 4.47352044 0 0 Z " fill="#D3D7E5" transform="translate(670,946)"/>
<path d="M0 0 C-1.53643852 3.68069887 -3.78150945 5.98775204 -6.625 8.75 C-7.85089844 9.94882812 -7.85089844 9.94882812 -9.1015625 11.171875 C-9.72804688 11.77515625 -10.35453125 12.3784375 -11 13 C-11.99 12.34 -12.98 11.68 -14 11 C-12.04709472 9.16056628 -10.08818082 7.32840869 -8.125 5.5 C-7.29162109 4.71302734 -7.29162109 4.71302734 -6.44140625 3.91015625 C-2.2265625 0 -2.2265625 0 0 0 Z " fill="#23263F" transform="translate(753,523)"/>
<path d="M0 0 C-1.45326453 3.31642418 -3.28171542 5.60832566 -5.8125 8.1875 C-6.47894531 8.88230469 -7.14539063 9.57710938 -7.83203125 10.29296875 C-10.26059921 12.20519253 -11.96250826 12.64483081 -15 13 C-13.88020758 11.88020758 -12.75972433 10.76110127 -11.63671875 9.64453125 C-10.40002209 8.4019315 -9.17553706 7.14716167 -7.95703125 5.88671875 C-6.89548828 4.79810547 -6.89548828 4.79810547 -5.8125 3.6875 C-5.13832031 2.99011719 -4.46414063 2.29273438 -3.76953125 1.57421875 C-2 0 -2 0 0 0 Z " fill="#0190E8" transform="translate(693,396)"/>
<path d="M0 0 C0.83984375 1.640625 0.83984375 1.640625 1 4 C-0.75836408 6.1302685 -2.42424794 7.8949842 -4.4375 9.75 C-4.96666016 10.25660156 -5.49582031 10.76320313 -6.04101562 11.28515625 C-7.34977101 12.53495869 -8.67351959 13.76902618 -10 15 C-10.66 14.34 -11.32 13.68 -12 13 C-11.30132813 12.31292969 -10.60265625 11.62585938 -9.8828125 10.91796875 C-8.97273437 10.01691406 -8.06265625 9.11585938 -7.125 8.1875 C-6.22007812 7.29417969 -5.31515625 6.40085937 -4.3828125 5.48046875 C-1.90168486 3.04361667 -1.90168486 3.04361667 0 0 Z " fill="#028BEB" transform="translate(533,559)"/>
<path d="M0 0 C0.66 0.33 1.32 0.66 2 1 C-2.03523352 5.81123996 -6.04467233 10.13242719 -11 14 C-10.52590352 9.68269587 -7.96603297 7.66352539 -4.9375 4.75 C-4.01839844 3.85796875 -3.09929688 2.9659375 -2.15234375 2.046875 C-1.44207031 1.37140625 -0.73179687 0.6959375 0 0 Z " fill="#011938" transform="translate(857,383)"/>
<path d="M0 0 C0.66 0.66 1.32 1.32 2 2 C0.61392377 3.46761013 -0.78431195 4.92374189 -2.1875 6.375 C-2.96480469 7.18710937 -3.74210938 7.99921875 -4.54296875 8.8359375 C-6.987055 10.98859852 -8.92616557 12.00632706 -12 13 C-8.19524578 8.43969176 -4.25030379 4.14910608 0 0 Z " fill="#EBECF0" transform="translate(705,572)"/>
<path d="M0 0 C0.33 1.32 0.66 2.64 1 4 C-0.65234375 6.359375 -0.65234375 6.359375 -2.9375 8.75 C-4.06478516 9.94882812 -4.06478516 9.94882812 -5.21484375 11.171875 C-5.80394531 11.77515625 -6.39304687 12.3784375 -7 13 C-7.99 12.67 -8.98 12.34 -10 12 C-6.7 8.04 -3.4 4.08 0 0 Z " fill="#161A30" transform="translate(971,520)"/>
<path d="M0 0 C0.99 0.33 1.98 0.66 3 1 C0.36 3.97 -2.28 6.94 -5 10 C-5.66 9.67 -6.32 9.34 -7 9 C-5.44499019 5.18315774 -2.96404505 2.80804268 0 0 Z " fill="#191F35" transform="translate(516,543)"/>
<path d="M0 0 C-1.44781793 3.44428265 -3.27694609 5.36130962 -6.125 7.75 C-7.21167969 8.67039062 -7.21167969 8.67039062 -8.3203125 9.609375 C-8.87460937 10.06828125 -9.42890625 10.5271875 -10 11 C-10.66 10.67 -11.32 10.34 -12 10 C-10.38113585 8.32737283 -8.7547271 6.66204463 -7.125 5 C-6.22007812 4.071875 -5.31515625 3.14375 -4.3828125 2.1875 C-2 0 -2 0 0 0 Z " fill="#1A2036" transform="translate(489,574)"/>
<path d="M0 0 C0 4.15560231 -2.2820452 5.84099329 -5 8.6875 C-5.47695313 9.19861328 -5.95390625 9.70972656 -6.4453125 10.23632812 C-7.62359915 11.49709484 -8.81095253 12.74937686 -10 14 C-10.33 13.34 -10.66 12.68 -11 12 C-3.70159453 3.55353075 -3.70159453 3.55353075 0 0 Z " fill="#001038" transform="translate(626,949)"/>
<path d="M0 0 C0.33 0.99 0.66 1.98 1 3 C-0.328125 5.04296875 -0.328125 5.04296875 -2.25 7.1875 C-3.18585937 8.26064453 -3.18585937 8.26064453 -4.140625 9.35546875 C-6 11 -6 11 -9 11 C-8.60167969 10.54109375 -8.20335937 10.0821875 -7.79296875 9.609375 C-5.08857938 6.47728415 -2.42008229 3.36122541 0 0 Z " fill="#0190ED" transform="translate(550,541)"/>
<path d="M0 0 C-1.5830577 4.2742558 -4.50568404 6.26531794 -8 9 C-8.66 8.34 -9.32 7.68 -10 7 C-3.18421053 0 -3.18421053 0 0 0 Z " fill="#1F2541" transform="translate(732,544)"/>
<path d="M0 0 C1.77503906 0.03480469 1.77503906 0.03480469 3.5859375 0.0703125 C5.36871094 0.09738281 5.36871094 0.09738281 7.1875 0.125 C8.10273438 0.14820313 9.01796875 0.17140625 9.9609375 0.1953125 C9.9609375 0.5253125 9.9609375 0.8553125 9.9609375 1.1953125 C9.21328125 1.19789063 8.465625 1.20046875 7.6953125 1.203125 C2.11543944 1.19762021 2.11543944 1.19762021 -2.66015625 3.59765625 C-3.88221753 5.4087304 -3.88221753 5.4087304 -5.0390625 8.1953125 C-5.6990625 7.8653125 -6.3590625 7.5353125 -7.0390625 7.1953125 C-4.49457802 0.28885463 -4.49457802 0.28885463 0 0 Z " fill="#03A3F0" transform="translate(390.0390625,289.8046875)"/>
<path d="M0 0 C1.32 0.66 2.64 1.32 4 2 C1.88229834 4.32947183 -0.03335588 5.88750845 -3 7 C-3.99 6.67 -4.98 6.34 -6 6 C-4.02 4.02 -2.04 2.04 0 0 Z " fill="#11162A" transform="translate(916,586)"/>
<path d="M0 0 C0.66 0.33 1.32 0.66 2 1 C-5.11389522 9.81548975 -5.11389522 9.81548975 -10 11 C-6.79239749 7.19364503 -3.59253891 3.45436433 0 0 Z " fill="#017AED" transform="translate(351,748)"/>
<path d="M0 0 C0.99 0.33 1.98 0.66 3 1 C2.07347299 2.17539996 1.13336613 3.34010577 0.1875 4.5 C-0.33457031 5.1496875 -0.85664062 5.799375 -1.39453125 6.46875 C-3 8 -3 8 -6 8 C-4.55746343 4.63408134 -2.66735273 2.48952921 0 0 Z " fill="#1F2438" transform="translate(531,527)"/>
<path d="M0 0 C0.33 0.66 0.66 1.32 1 2 C-0.76227632 5.61730402 -2.64326421 7.80075931 -6 10 C-6 6.41087588 -5.33563446 5.89142971 -3 3.3125 C-2.443125 2.68988281 -1.88625 2.06726563 -1.3125 1.42578125 C-0.879375 0.95527344 -0.44625 0.48476563 0 0 Z " fill="#0289E2" transform="translate(568,522)"/>
<path d="M0 0 C0.99 0.33 1.98 0.66 3 1 C0.03 3.64 -2.94 6.28 -6 9 C-6.66 8.67 -7.32 8.34 -8 8 C-5.36 5.36 -2.72 2.72 0 0 Z " fill="#252A3E" transform="translate(499,561)"/>
<path d="M0 0 C0.33 1.32 0.66 2.64 1 4 C0.38125 4.2475 -0.2375 4.495 -0.875 4.75 C-3.35068687 6.20628639 -3.95125002 7.37812506 -5 10 C-5.99 9.67 -6.98 9.34 -8 9 C-5.36 6.03 -2.72 3.06 0 0 Z " fill="#1C2138" transform="translate(960,533)"/>
<path d="M0 0 C0.99 0.66 1.98 1.32 3 2 C0.69 4.31 -1.62 6.62 -4 9 C-4 5.28703828 -2.65223411 2.65223411 0 0 Z " fill="#058DF7" transform="translate(616,623)"/>
<path d="M0 0 C0.99 0.33 1.98 0.66 3 1 C-0.96 4.465 -0.96 4.465 -5 8 C-5.66 7.67 -6.32 7.34 -7 7 C-4.69 4.69 -2.38 2.38 0 0 Z " fill="#0E1329" transform="translate(524,535)"/>
<path d="M0 0 C0.66 0.66 1.32 1.32 2 2 C-0.31 4.31 -2.62 6.62 -5 9 C-5.66 8.34 -6.32 7.68 -7 7 C-4.69 4.69 -2.38 2.38 0 0 Z " fill="#0492ED" transform="translate(576,514)"/>
<path d="M0 0 C0.66 0 1.32 0 2 0 C2.33 1.65 2.66 3.3 3 5 C0.36 5.33 -2.28 5.66 -5 6 C-3.38405168 3.95880212 -1.7143618 1.95927063 0 0 Z " fill="#0165D3" transform="translate(372,725)"/>
<path d="M0 0 C0.99 0.33 1.98 0.66 3 1 C1.35 2.98 -0.3 4.96 -2 7 C-2.66 6.67 -3.32 6.34 -4 6 C-2.84826645 3.53199953 -1.95216435 1.95216435 0 0 Z " fill="#038FED" transform="translate(708,531)"/>
<path d="M0 0 C0.99 0.33 1.98 0.66 3 1 C0.69 3.31 -1.62 5.62 -4 8 C-4.66 7.34 -5.32 6.68 -6 6 C-4.02 4.02 -2.04 2.04 0 0 Z " fill="#10152C" transform="translate(540,518)"/>
<path d="M0 0 C0.66 0.66 1.32 1.32 2 2 C0.02 3.98 -1.96 5.96 -4 8 C-4.99 7.67 -5.98 7.34 -7 7 C-4.69 4.69 -2.38 2.38 0 0 Z " fill="#0193EB" transform="translate(591,498)"/>
<path d="M0 0 C0.99 0.33 1.98 0.66 3 1 C1.35 2.98 -0.3 4.96 -2 7 C-2.66 6.67 -3.32 6.34 -4 6 C-2.84826645 3.53199953 -1.95216435 1.95216435 0 0 Z " fill="#028CEA" transform="translate(739,500)"/>
<path d="M0 0 C2.4294516 3.6441774 2.16179575 5.71241272 2 10 C1.01 10.33 0.02 10.66 -1 11 C-0.67 7.37 -0.34 3.74 0 0 Z " fill="#0C1229" transform="translate(929,841)"/>
<path d="M0 0 C0 0.66 0 1.32 0 2 C-2.97 2 -5.94 2 -9 2 C-9 1.34 -9 0.68 -9 0 C-5.93109813 -1.53445094 -3.29905734 -0.54984289 0 0 Z " fill="#0B0F1C" transform="translate(528,704)"/>
<path d="M0 0 C0.66 0.66 1.32 1.32 2 2 C1.0479279 3.00596297 0.08812654 4.00461563 -0.875 5 C-1.40867187 5.556875 -1.94234375 6.11375 -2.4921875 6.6875 C-4 8 -4 8 -6 8 C-4.55746343 4.63408134 -2.66735273 2.48952921 0 0 Z " fill="#0D142F" transform="translate(472,590)"/>
<path d="M0 0 C0.33 0.99 0.66 1.98 1 3 C-0.65 4.65 -2.3 6.3 -4 8 C-4.99 7.67 -5.98 7.34 -7 7 C-4.69 4.69 -2.38 2.38 0 0 Z " fill="#0285DB" transform="translate(632,455)"/>
<path d="M0 0 C0.33 0.99 0.66 1.98 1 3 C-0.65 4.65 -2.3 6.3 -4 8 C-4.99 7.67 -5.98 7.34 -7 7 C-4.69 4.69 -2.38 2.38 0 0 Z " fill="#0291EC" transform="translate(640,447)"/>
<path d="M0 0 C0 0.66 0 1.32 0 2 C-3.3 2 -6.6 2 -10 2 C-10 1.34 -10 0.68 -10 0 C-6.7169902 -1.6415049 -3.57454967 -0.51888624 0 0 Z " fill="#0C101D" transform="translate(662,704)"/>
<path d="M0 0 C2.31 0.33 4.62 0.66 7 1 C7.33 2.65 7.66 4.3 8 6 C5.0280615 4.87548273 2.66559313 3.77706209 0 2 C0 1.34 0 0.68 0 0 Z " fill="#15172A" transform="translate(476,695)"/>
<path d="M0 0 C0.66 0.99 1.32 1.98 2 3 C0.35 4.65 -1.3 6.3 -3 8 C-3.99 7.67 -4.98 7.34 -6 7 C-4.02 4.69 -2.04 2.38 0 0 Z " fill="#016CE2" transform="translate(307,795)"/>
<path d="M0 0 C0 4.38968456 -2.12805101 5.76905739 -5 9 C-5.66 8.34 -6.32 7.68 -7 7 C-4.69 4.69 -2.38 2.38 0 0 Z " fill="#0076F0" transform="translate(367,731)"/>
<path d="M0 0 C0.99 0.33 1.98 0.66 3 1 C-0.465 3.97 -0.465 3.97 -4 7 C-4.66 6.67 -5.32 6.34 -6 6 C-4.02 4.02 -2.04 2.04 0 0 Z " fill="#0F142B" transform="translate(506,554)"/>
<path d="M0 0 C-2.97 1.32 -5.94 2.64 -9 4 C-9.66 3.34 -10.32 2.68 -11 2 C-4.5 -1.125 -4.5 -1.125 0 0 Z " fill="#CACCD5" transform="translate(494,508)"/>
<path d="M0 0 C0.99 0.33 1.98 0.66 3 1 C1.35 2.65 -0.3 4.3 -2 6 C-2.99 5.67 -3.98 5.34 -5 5 C-3.35 3.35 -1.7 1.7 0 0 Z " fill="#0269DD" transform="translate(294,810)"/>
<path d="M0 0 C0.33 0.99 0.66 1.98 1 3 C-0.32 4.32 -1.64 5.64 -3 7 C-3.99 6.67 -4.98 6.34 -6 6 C-4.02 4.02 -2.04 2.04 0 0 Z " fill="#0389E3" transform="translate(540,552)"/>
<path d="M0 0 C0.99 0.33 1.98 0.66 3 1 C1.1875 3.5 1.1875 3.5 -1 6 C-1.99 6 -2.98 6 -4 6 C-2.84826645 3.53199953 -1.95216435 1.95216435 0 0 Z " fill="#161B32" transform="translate(985,504)"/>
<path d="M0 0 C0.33 1.32 0.66 2.64 1 4 C-0.65 5.32 -2.3 6.64 -4 8 C-4 4.09161134 -2.49432124 2.88405893 0 0 Z " fill="#171E3B" transform="translate(556,500)"/>
</svg>
